<?xml version="1.0" encoding="UTF-8" standalone="no"?>
<!DOCTYPE svg PUBLIC "-//W3C//DTD SVG 1.1//EN" "http://www.w3.org/Graphics/SVG/1.1/DTD/svg11.dtd">
<svg width="100%" height="100%" viewBox="0 0 100 36" version="1.1" xmlns="http://www.w3.org/2000/svg" xmlns:xlink="http://www.w3.org/1999/xlink" xml:space="preserve" xmlns:serif="http://www.serif.com/" style="fill-rule:evenodd;clip-rule:evenodd;stroke-linejoin:round;stroke-miterlimit:2;">
    <rect x="-5.727" y="-10.929" width="115.456" height="53.024"/>
    <g transform="matrix(0.84956,0,0,0.84956,-0.276379,2.442297)">
        <g transform="matrix(0.32609,0,0,0.32609,18.509331,19.642201)">
            <g transform="matrix(50,0,0,50,276.934123,13.35988)">
            </g>
            <text x="50.616px" y="13.36px" style="font-family:'MicrosoftYaHei-Bold', 'Microsoft YaHei', sans-serif;font-weight:700;font-size:50px;fill:white;">FloowTix</text>
        </g>
        <g transform="matrix(0.068088,0,0,0.068088,3.83804,0.904837)">
            <g>
                <path d="M159.672,227.677L287.693,228.358C278.5,264.79 250,280.111 250,280.111C250,280.111 187.938,279.532 177.037,279.43C166.136,279.329 148.096,300.881 148.096,300.881L159.672,227.677Z" style="fill:rgb(60,137,255);"/>
                <path d="M411.417,192.911L326.296,221.171L346.044,237.173C346.044,237.173 264.72,348.511 178.238,344.425C170.747,383.24 169.385,387.666 169.385,387.666C169.385,387.666 241.846,398.321 331.953,311.908C373.492,272.071 379.28,264.279 379.28,264.279L398.347,278.881C398.347,278.881 410.867,233.447 411.417,192.911Z" style="fill:rgb(60,137,255);"/>
            </g>
            <path d="M352.868,124.065L218.205,124.065C218.205,124.065 131.754,109.102 112.635,207.19C93.516,305.278 85.204,355.154 85.204,355.154C85.204,355.154 117.623,385.079 134.248,380.923C155.86,278.678 159.185,262.053 168.329,217.997C177.473,173.94 201.164,176.434 250,179.759C298.836,183.084 335.411,193.059 352.868,124.065Z" style="fill:white;"/>
        </g>
    </g>
</svg>
