<?xml version="1.0" encoding="UTF-8" standalone="no"?><!DOCTYPE svg PUBLIC "-//W3C//DTD SVG 1.1//EN" "http://www.w3.org/Graphics/SVG/1.1/DTD/svg11.dtd"><svg width="100%" height="100%" viewBox="0 0 100 40" version="1.1" xmlns="http://www.w3.org/2000/svg" xmlns:xlink="http://www.w3.org/1999/xlink" xml:space="preserve" xmlns:serif="http://www.serif.com/" style="fill-rule:evenodd;clip-rule:evenodd;stroke-linejoin:round;stroke-miterlimit:2;"><g><g transform="matrix(14.732719,0,0,14.732719,94.85051,25.137917)"></g><text x="28.16481px" y="25.13792px" style="font-family:'MicrosoftYaHei-Bold', 'Microsoft YaHei', sans-serif;font-weight:700;font-size:14.73272px;fill:#fff;">FloowTix</text><g><g><path d="M9.81745,18.27805l7.87645,0.0419c-0.5656,2.24143 -2.31907,3.1841 -2.31907,3.1841c0,0 -3.81836,-0.03564 -4.48903,-0.0419c-0.67067,-0.00626 -1.78058,1.31972 -1.78058,1.31972l0.71223,-4.50382Z" style="fill:#3c89ff;"/><path d="M25.30592,16.13905l-5.237,1.73868l1.21498,0.98456c0,0 -5.0034,6.84999 -10.32419,6.59862c-0.46086,2.38807 -0.54465,2.6604 -0.54465,2.6604c0,0 4.45812,0.65553 10.00189,-4.66103c2.55565,-2.45092 2.91177,-2.93032 2.91177,-2.93032l1.17309,0.89836c0,0 0.7703,-2.79528 0.80411,-5.28927Z" style="fill:#3c89ff;"/></g><path d="M21.70372,11.90335l-8.28509,0c0,0 -5.31883,-0.92057 -6.49511,5.11426c-1.17628,6.03482 -1.6877,9.10338 -1.6877,9.10338c0,0 1.99456,1.84113 3.01741,1.58542c1.32971,-6.29054 1.53428,-7.31339 2.09685,-10.02395c0.56257,-2.71056 2.02013,-2.55713 5.02476,-2.35256c3.00463,0.20457 5.2549,0.81828 6.32889,-3.42655Z" style="fill:#fff;"/></g></g></svg>
