<?xml version="1.0" encoding="UTF-8" standalone="no"?><!DOCTYPE svg PUBLIC "-//W3C//DTD SVG 1.1//EN" "http://www.w3.org/Graphics/SVG/1.1/DTD/svg11.dtd"><svg width="100%" height="100%" viewBox="0 0 35 35" version="1.1" xmlns="http://www.w3.org/2000/svg" xmlns:xlink="http://www.w3.org/1999/xlink" xml:space="preserve" xmlns:serif="http://www.serif.com/" style="fill-rule:evenodd;clip-rule:evenodd;stroke-linejoin:round;stroke-miterlimit:2;"><rect x="-12.54123240665" y="-15.26966791631" width="62.15131895819" height="60.37557112491"/><g><g><path d="M10.78410664407,15.37941005789l9.69986941979,0.05159543956c-0.69653311989,2.76033357885 -2.85594229424,3.92122329292 -2.85594229424,3.92122329292c0,0 -4.70232273808,-0.04388699082 -5.52825345465,-0.05159543956c-0.82593071657,-0.00770844874 -2.19278905786,1.6252439464 -2.19278905786,1.6252439464l0.87711538696,-5.54646723932Z" style="fill:#3c89ff;"/><path d="M29.85819552003,12.74523195997l-6.44937967334,2.14119398542l1.49625696282,1.21248384623c0,0 -6.16170540746,8.43578853715 -12.71427565392,8.12621829393c-0.56754505225,2.94091731054 -0.6707359206,3.2762858613 -0.6707359206,3.2762858613c0,0 5.49019408831,0.80728844609 12.31735570755,-5.74007310522c3.14729645091,-3.01830964646 3.58585465643,-3.60869716408 3.58585465643,-3.60869716408l1.44466024009,1.10633768771c0,0 0.94862584083,-3.44239867648 0.99026368097,-6.51374940529Z" style="fill:#3c89ff;"/></g><path d="M25.42208279807,7.52894715141l-10.20311899025,0c0,0 -6.55015615789,-1.13368020815 -7.9987456129,6.29822385913c-1.44858945502,7.43190406728 -2.07841371494,11.21083809445 -2.07841371494,11.21083809445c0,0 2.45630711766,2.2673604163 3.71595275441,1.95244828634c1.63753903947,-7.74681475569 1.88946989668,-9.00646039245 2.58227254626,-12.3445183026c0.69280264958,-3.33805791015 2.48779823455,-3.14910976724 6.18800398897,-2.89718179313c3.70020575442,0.25192797411 6.47142211894,1.00771550032 7.79404902845,-4.21981014419Z" style="fill:#fff;"/></g></svg>
